<?xml version="1.0" encoding="UTF-8"?>
<svg xmlns="http://www.w3.org/2000/svg" xmlns:xlink="http://www.w3.org/1999/xlink" width="14px" height="14px" viewBox="0 0 14 14" version="1.1">
<g id="surface1">
<path style=" stroke:none;fill-rule:nonzero;fill:rgb(1.176471%,78.039216%,35.294118%);fill-opacity:1;" d="M 12.601562 14 L 1.398438 14 C 0.628906 14 0 13.371094 0 12.601562 L 0 1.398438 C 0 0.628906 0.628906 0 1.398438 0 L 12.601562 0 C 13.371094 0 14 0.628906 14 1.398438 L 14 12.601562 C 14 13.371094 13.371094 14 12.601562 14 Z M 12.601562 14 "/>
<path style=" stroke:none;fill-rule:nonzero;fill:rgb(100%,100%,100%);fill-opacity:1;" d="M 7.945312 7.175781 L 5.949219 4.339844 L 4.304688 4.339844 L 4.304688 9.660156 L 6.054688 9.660156 L 6.054688 6.824219 L 8.050781 9.660156 L 9.695312 9.660156 L 9.695312 4.339844 L 7.945312 4.339844 Z M 7.945312 7.175781 "/>
</g>
</svg>
